<svg xmlns="http://www.w3.org/2000/svg" xmlns:xlink="http://www.w3.org/1999/xlink" width="40" height="40" viewBox="0 0 40 40"><defs><path id="j669a" d="M358 417c11.046 0 20 8.954 20 20 0 11.045-8.954 20-20 20s-20-8.955-20-20c0-11.046 8.954-20 20-20z"/><path id="j669b" d="M352.286 437.795a.993.993 0 0 1-.284-.795.993.993 0 0 1 .727-1.053l6.595-6.66a.978.978 0 0 1 1.39 0 .996.996 0 0 1 0 1.402l-6.25 6.31 6.25 6.312a.996.996 0 0 1 0 1.4.978.978 0 0 1-1.39 0l-6.595-6.658a.977.977 0 0 1-.443-.258z"/></defs><g><g transform="translate(-338 -417)"><use fill="#f4d4e4" xlink:href="#j669a"/></g><g transform="translate(-338 -417)"><use fill="#ef529f" xlink:href="#j669b"/></g></g></svg>
