<svg xmlns="http://www.w3.org/2000/svg" xmlns:xlink="http://www.w3.org/1999/xlink" width="20" height="21" viewBox="0 0 20 21"><defs><path id="q0tga" d="M1445.5 130a2.5 2.5 0 1 1 0 5 2.5 2.5 0 0 1 0-5zm7 0a2.5 2.5 0 1 1 0 5 2.5 2.5 0 0 1 0-5zm4.038-12c.808 0 1.462.632 1.462 1.411l-2.923 7.177c0 .78-1.385 1.412-2.192 1.412h-8.424c-.807 0-1.461-.633-1.461-1.412l-2-7.177c0-.238.061-.463.17-.66l-.738-2.751H1438v-2h4v.125l1.038 3.875z"/></defs><g><g transform="translate(-1438 -114)"><use xlink:href="#q0tga"/></g></g></svg>