<svg xmlns="http://www.w3.org/2000/svg" xmlns:xlink="http://www.w3.org/1999/xlink" width="18" height="19" viewBox="0 0 18 19"><defs><path id="npula" d="M513 924.654c0 .4-.34.73-.75.73a.746.746 0 0 1-.75-.73c0-.4.34-.73.75-.73s.75.33.75.73zm13.5 6.577c0 .776-.715 1.461-1.5 1.461h-4.125c0 1.336 1.125 2.307 1.125 3.654 0 1.336-.27 2.192-1.875 2.192-.75-.742-.363-2.489-1.5-3.653-.328-.332-.61-.686-.902-1.04-.528-.662-1.922-2.614-2.848-2.614h-.375v-7.308h.375c.656 0 1.734-.411 2.367-.628 1.29-.434 2.625-.834 4.008-.834h1.5c1.3 0 2.168.571 2.168 1.907 0 .217-.024.434-.059.64.492.262.762.913.762 1.439 0 .274-.07.548-.21.787.398.366.62.822.62 1.36 0 .365-.164.901-.41 1.175.55.012.879 1.04.879 1.462zm1.5.011a3.3 3.3 0 0 0-.574-1.861c.07-.251.105-.525.105-.788 0-.57-.152-1.142-.445-1.644.023-.16.035-.331.035-.491 0-.73-.246-1.462-.703-2.033v-.057c.012-2.135-1.524-3.368-3.656-3.368h-1.313c-1.805 0-3.27.434-4.957 1.005-.34.114-1.289.456-1.617.456H511.5c-.832 0-1.5.651-1.5 1.462v7.308c0 .81.668 1.461 1.5 1.461h3.21c.458.297 1.255 1.325 1.606 1.77.399.502.809.993 1.254 1.45.692.742.328 2.546 1.5 3.665.282.263.657.423 1.055.423 1.219 0 2.39-.423 2.965-1.53.363-.685.41-1.37.41-2.124 0-.8-.211-1.484-.563-2.192H525c1.617 0 3-1.336 3-2.912z"/></defs><g><g transform="translate(-510 -921)"><use xlink:href="#npula"/></g></g></svg>