<svg xmlns="http://www.w3.org/2000/svg" xmlns:xlink="http://www.w3.org/1999/xlink" width="18" height="19" viewBox="0 0 18 19"><defs><path id="b5bna" d="M429 936.346c0 .4-.34.73-.75.73a.746.746 0 0 1-.75-.73c0-.4.34-.73.75-.73s.75.33.75.73zm13.5-6.577c0 .423-.328 1.45-.879 1.462.246.274.41.81.41 1.176 0 .536-.222.993-.62 1.359.14.24.21.513.21.787 0 .526-.27 1.176-.762 1.44.035.205.059.422.059.639 0 1.393-.926 1.906-2.25 1.906h-1.418c-1.383 0-2.719-.4-4.008-.833-.633-.217-1.71-.628-2.367-.628h-.375v-7.308h.375c.926 0 2.32-1.952 2.848-2.615.293-.354.574-.708.902-1.039 1.137-1.164.75-2.911 1.5-3.654 1.605 0 1.875.857 1.875 2.193 0 1.347-1.125 2.318-1.125 3.654H441c.785 0 1.5.685 1.5 1.461zm1.5-.011c0-1.576-1.383-2.912-3-2.912h-2.063c.352-.708.563-1.393.563-2.192 0-.765-.047-1.428-.41-2.124-.574-1.108-1.746-1.53-2.965-1.53-.398 0-.773.16-1.055.422-1.172 1.12-.797 2.924-1.5 3.654-.445.468-.855.96-1.254 1.462-.351.445-1.148 1.473-1.605 1.77H427.5c-.832 0-1.5.65-1.5 1.461v7.308c0 .81.668 1.461 1.5 1.461h3.375c.328 0 1.277.343 1.617.457 1.547.525 3.094 1.005 4.758 1.005h1.512c2.168 0 3.68-1.267 3.656-3.425.457-.571.703-1.302.703-2.033 0-.16-.012-.331-.035-.49a3.274 3.274 0 0 0 .445-1.645 2.97 2.97 0 0 0-.105-.788 3.3 3.3 0 0 0 .574-1.861z"/></defs><g><g transform="translate(-426 -921)"><use xlink:href="#b5bna"/></g></g></svg>