<svg xmlns="http://www.w3.org/2000/svg" xmlns:xlink="http://www.w3.org/1999/xlink" width="20" height="20" viewBox="0 0 20 20"><defs><path id="yqyoa" d="M366 920c5.523 0 10 4.477 10 10s-4.477 10-10 10-10-4.477-10-10 4.477-10 10-10zm6.978 7.5s-.102-.257-.736-.186l-2.1.012c-.16-.019-.277.039-.277.039s-.124.057-.183.198c-.342.774-.78 1.44-.78 1.44-.933 1.395-1.312 1.471-1.466 1.382-.357-.199-.262-.806-.262-1.242 0-1.356.233-1.919-.46-2.066-.226-.045-.393-.077-.984-.083-.75-.007-1.385 0-1.743.153-.24.103-.422.333-.313.346.138.019.452.076.62.275 0 0 .182.262.211.838.08 1.593-.292 1.792-.292 1.792-.284.134-.78-.09-1.509-1.408 0 0-.423-.653-.751-1.37-.058-.134-.175-.204-.175-.204s-.131-.09-.32-.115l-1.999.013c-.306 0-.415.121-.415.121s-.11.102-.008.314c1.56 3.218 3.34 4.83 3.34 4.83s1.626 1.491 3.47 1.389h.84a.669.669 0 0 0 .386-.14s.116-.116.11-.327c-.015-.985.51-1.133.51-1.133.51-.14 1.166.954 1.866 1.376 0 0 .533.32.934.25l1.866-.026c.985-.006.518-.723.518-.723-.036-.058-.27-.5-1.393-1.414-1.166-.954-1.013-.8.401-2.45.86-1.005 1.203-1.62 1.094-1.882z"/></defs><g><g transform="translate(-356 -920)"><use xlink:href="#yqyoa"/></g></g></svg>