<svg xmlns="http://www.w3.org/2000/svg" xmlns:xlink="http://www.w3.org/1999/xlink" width="40" height="40" viewBox="0 0 40 40"><defs><path id="xr8pa" d="M1478 417c11.046 0 20 8.954 20 20 0 11.045-8.954 20-20 20s-20-8.955-20-20c0-11.046 8.954-20 20-20z"/><path id="xr8pb" d="M1483.714 436.204c.216.218.31.512.284.796a.993.993 0 0 1-.727 1.053l-6.595 6.659a.978.978 0 0 1-1.39 0 .996.996 0 0 1 0-1.401l6.25-6.311-6.25-6.311a.996.996 0 0 1 0-1.402.978.978 0 0 1 1.39 0l6.595 6.66a.977.977 0 0 1 .443.257z"/></defs><g><g transform="translate(-1458 -417)"><use fill="#f4d4e4" xlink:href="#xr8pa"/></g><g transform="translate(-1458 -417)"><use fill="#ef529f" xlink:href="#xr8pb"/></g></g></svg>