<svg xmlns="http://www.w3.org/2000/svg" width="16" height="16" viewBox="0 0 16 16">
  <metadata><?xpacket begin="﻿" id="W5M0MpCehiHzreSzNTczkc9d"?>
<x:xmpmeta xmlns:x="adobe:ns:meta/" x:xmptk="Adobe XMP Core 5.6-c138 79.159824, 2016/09/14-01:09:01        ">
   <rdf:RDF xmlns:rdf="http://www.w3.org/1999/02/22-rdf-syntax-ns#">
      <rdf:Description rdf:about=""/>
   </rdf:RDF>
</x:xmpmeta>
                                                                                                    
                                                                                                    
                                                                                                    
                                                                                                    
                                                                                                    
                                                                                                    
                                                                                                    
                                                                                                    
                                                                                                    
                                                                                                    
                                                                                                    
                                                                                                    
                                                                                                    
                                                                                                    
                                                                                                    
                                                                                                    
                                                                                                    
                                                                                                    
                                                                                                    
                                                                                                    
                           
<?xpacket end="w"?></metadata>
<defs>
    <style>
      .cls-1 {
        fill-rule: evenodd;
      }
    </style>
  </defs>
  <path id="button_phone" class="cls-1" d="M1208.84,18.274l-0.9-.948s-1.12-.747-1.82,0-1.81,1.9-1.81,1.9-1.12.841,0.91,3.792,8.15,9.482,8.15,9.482,1.3,1.161,3.63,0,2.72-1.9,2.72-1.9a1.821,1.821,0,0,0,0-1.9,5.734,5.734,0,0,0-1.82-1.9,2.691,2.691,0,0,0-2.71.948c-1.87,2.122-6.35-3.793-6.35-3.793a2,2,0,0,1,0-1.9c1.18-1.57,1.96-1.35.91-2.844C1209.05,18.235,1208.84,18.274,1208.84,18.274Z" transform="translate(-1204 -17)"/>
</svg>
