<svg xmlns="http://www.w3.org/2000/svg" xmlns:xlink="http://www.w3.org/1999/xlink"><defs><path id="a" d="M1445.5 130a2.5 2.5 0 1 1 0 5 2.5 2.5 0 0 1 0-5zm7 0a2.5 2.5 0 1 1 0 5 2.5 2.5 0 0 1 0-5zm4.038-12c.808 0 1.462.632 1.462 1.411l-2.923 7.177c0 .78-1.385 1.412-2.192 1.412h-8.424c-.807 0-1.461-.633-1.461-1.412l-2-7.177c0-.238.061-.463.17-.66l-.738-2.751H1438v-2h4v.125l1.038 3.875z"/><path id="a" d="M290 920c5.523 0 10 4.477 10 10s-4.477 10-10 10-10-4.477-10-10 4.477-10 10-10zm2.993 4.086a13.133 13.133 0 0 0-1.583-.086c-1.57 0-2.646.995-2.646 2.82v1.572h-1.771v2.134h1.77V936h2.126v-5.474h1.764l.27-2.134h-2.034v-1.363c0-.613.16-1.039 1.014-1.039h1.09z"/><path id="a" d="M668.177 532.246c-.094-.033 3.26-4.958 6.388-1.77 5.237 5.34-6.378 10.618-6.388 10.618-.054 0-11.003-6.234-6.388-10.618 3.635-3.453 6.472 1.799 6.388 1.77z"/><path id="a" d="M1486.842 116.274l-.906-.948s-1.119-.747-1.812 0c-.693.746-1.813 1.896-1.813 1.896s-1.126.84.907 3.792c2.032 2.953 8.155 9.482 8.155 9.482s1.295 1.16 3.625 0c2.33-1.161 2.719-1.896 2.719-1.896s.62-.964 0-1.897c-.968-1.457-1.813-1.896-1.813-1.896s-1.486-.456-2.718.948c-1.862 2.122-6.344-3.792-6.344-3.792s-.58-1.12 0-1.897c1.175-1.57 1.962-1.35.907-2.844-.698-.987-.907-.948-.907-.948z"/><path id="a" d="M513 924.654c0 .4-.34.73-.75.73a.746.746 0 0 1-.75-.73c0-.4.34-.73.75-.73s.75.33.75.73zm13.5 6.577c0 .776-.715 1.461-1.5 1.461h-4.125c0 1.336 1.125 2.307 1.125 3.654 0 1.336-.27 2.192-1.875 2.192-.75-.742-.363-2.489-1.5-3.653-.328-.332-.61-.686-.902-1.04-.528-.662-1.922-2.614-2.848-2.614h-.375v-7.308h.375c.656 0 1.734-.411 2.367-.628 1.29-.434 2.625-.834 4.008-.834h1.5c1.3 0 2.168.571 2.168 1.907 0 .217-.024.434-.059.64.492.262.762.913.762 1.439 0 .274-.07.548-.21.787.398.366.62.822.62 1.36 0 .365-.164.901-.41 1.175.55.012.879 1.04.879 1.462zm1.5.011a3.3 3.3 0 0 0-.574-1.861c.07-.251.105-.525.105-.788 0-.57-.152-1.142-.445-1.644.023-.16.035-.331.035-.491 0-.73-.246-1.462-.703-2.033v-.057c.012-2.135-1.524-3.368-3.656-3.368h-1.313c-1.805 0-3.27.434-4.957 1.005-.34.114-1.289.456-1.617.456H511.5c-.832 0-1.5.651-1.5 1.462v7.308c0 .81.668 1.461 1.5 1.461h3.21c.458.297 1.255 1.325 1.606 1.77.399.502.809.993 1.254 1.45.692.742.328 2.546 1.5 3.665.282.263.657.423 1.055.423 1.219 0 2.39-.423 2.965-1.53.363-.685.41-1.37.41-2.124 0-.8-.211-1.484-.563-2.192H525c1.617 0 3-1.336 3-2.912z"/><path id="a" d="M429 936.346c0 .4-.34.73-.75.73a.746.746 0 0 1-.75-.73c0-.4.34-.73.75-.73s.75.33.75.73zm13.5-6.577c0 .423-.328 1.45-.879 1.462.246.274.41.81.41 1.176 0 .536-.222.993-.62 1.359.14.24.21.513.21.787 0 .526-.27 1.176-.762 1.44.035.205.059.422.059.639 0 1.393-.926 1.906-2.25 1.906h-1.418c-1.383 0-2.719-.4-4.008-.833-.633-.217-1.71-.628-2.367-.628h-.375v-7.308h.375c.926 0 2.32-1.952 2.848-2.615.293-.354.574-.708.902-1.039 1.137-1.164.75-2.911 1.5-3.654 1.605 0 1.875.857 1.875 2.193 0 1.347-1.125 2.318-1.125 3.654H441c.785 0 1.5.685 1.5 1.461zm1.5-.011c0-1.576-1.383-2.912-3-2.912h-2.063c.352-.708.563-1.393.563-2.192 0-.765-.047-1.428-.41-2.124-.574-1.108-1.746-1.53-2.965-1.53-.398 0-.773.16-1.055.422-1.172 1.12-.797 2.924-1.5 3.654-.445.468-.855.96-1.254 1.462-.351.445-1.148 1.473-1.605 1.77H427.5c-.832 0-1.5.65-1.5 1.461v7.308c0 .81.668 1.461 1.5 1.461h3.375c.328 0 1.277.343 1.617.457 1.547.525 3.094 1.005 4.758 1.005h1.512c2.168 0 3.68-1.267 3.656-3.425a3.276 3.276 0 0 0 .703-2.033 3.5 3.5 0 0 0-.035-.49 3.274 3.274 0 0 0 .445-1.645 2.97 2.97 0 0 0-.105-.788 3.3 3.3 0 0 0 .574-1.861z"/><path id="a" d="M366 920c5.523 0 10 4.477 10 10s-4.477 10-10 10-10-4.477-10-10 4.477-10 10-10zm6.978 7.5s-.102-.257-.736-.186l-2.1.012c-.16-.019-.277.039-.277.039s-.124.057-.183.198c-.342.774-.78 1.44-.78 1.44-.933 1.395-1.312 1.471-1.466 1.382-.357-.199-.262-.806-.262-1.242 0-1.356.233-1.919-.46-2.066-.226-.045-.393-.077-.984-.083-.75-.007-1.385 0-1.743.153-.24.103-.422.333-.313.346.138.019.452.076.62.275 0 0 .182.262.211.838.08 1.593-.292 1.792-.292 1.792-.284.134-.78-.09-1.509-1.408 0 0-.423-.653-.751-1.37a.484.484 0 0 0-.175-.204s-.131-.09-.32-.115l-1.999.013c-.306 0-.415.121-.415.121s-.11.102-.008.314c1.56 3.218 3.34 4.83 3.34 4.83s1.626 1.491 3.47 1.389h.84a.669.669 0 0 0 .386-.14s.116-.116.11-.327c-.015-.985.51-1.133.51-1.133.51-.14 1.166.954 1.866 1.376 0 0 .533.32.934.25l1.866-.026c.985-.006.518-.723.518-.723-.036-.058-.27-.5-1.393-1.414-1.166-.954-1.013-.8.401-2.45.86-1.005 1.203-1.62 1.094-1.882z"/><path id="a" d="M227 1350s-10 10-20 10-20-10-30-10c-9.053 0-14 10-26 10-8 0-23-10-23-10"/><clipPath id="b"><use fill="#fff" xlink:href="#a"/></clipPath></defs><symbol id="icon_book" viewBox="0 0 51.5 40"><path d="M37.5 3a15.75 15.75 0 0 0-12 2S21.12 1.94 14 3.5C4.56 5.57 0 .5 0 .5v36s5.1 3.57 14 1A12.75 12.75 0 0 1 25.5 40s5.35-4.92 12-3c8.9 2.57 14-1 14-1V0s-4.56 5.07-14 3zm-13 33.25A12.57 12.57 0 0 0 14 34.5c-8.9 2.57-12 0-12 0L2.5 5S4.56 8.57 14 6.5a16.22 16.22 0 0 1 10.5 1zm25-2.25s-3.1 2.57-12 0c-4.94-1.42-9.15.92-11 2.22V7.4a16.16 16.16 0 0 1 11-1.4c9.44 2.07 12-2 12-2zm-33-13h-6a1 1 0 0 0 0 2h6a1 1 0 0 0 0-2zm27-6h-12a1 1 0 0 0 0 2h12a1 1 0 0 0 0-2zm-37 1a1 1 0 0 0 1 1h12a1 1 0 0 0 0-2h-12a1 1 0 0 0-1 1zm34 5h-6a1 1 0 0 0 0 2h6a1 1 0 0 0 0-2z" fill="#d7569c"/></symbol><symbol id="icon_box" viewBox="0 0 57 42"><path d="M55 0H2a2 2 0 0 0-2 2v8a2 2 0 0 0 2 2h1v28a2 2 0 0 0 2 2h46a2 2 0 0 0 2-2V12h2a2 2 0 0 0 2-2V2a2 2 0 0 0-2-2zM35 2v23s-6-4.12-6-4-8 5-8 5V2zm20 6v2h-4v30H5V10H2V2h17v8H9a1 1 0 0 0 0 2h10v17s10-4.92 10-5 8 5 8 5V12h10a1 1 0 0 0 0-2H37V2h18z" fill="#d7569c" data-name="Layer 2"/></symbol><symbol id="icon_cart"><use xlink:href="#a" transform="translate(-1438 -114)"/></symbol><symbol id="icon_delivery" viewBox="0 0 67 38"><path d="M67 15A10 10 0 0 0 57 5h-7V0H16v8H7l.14 2H18V2h30v26H18v-8H8l-.4-4h25l-2.42 2.41a1 1 0 0 0 1.42 1.42l3.74-3.75a1 1 0 0 0 .5-.25 1 1 0 0 0 .26-.83.93.93 0 0 0-.77-1.08l-3.74-3.75a1 1 0 0 0-1.42 1.42L32.59 14H1a1 1 0 0 0 0 2h6.57L8 22h8v8h8a5 5 0 1 0 8 0h22a5 5 0 1 0 8 0h5zM28 36a3 3 0 1 1 3-3 3 3 0 0 1-3 3zm30 0a3 3 0 1 1 3-3 3 3 0 0 1-3 3zm7-8H50V7h7c4 0 8 4 8 8z" fill="#d7569c" data-name="Layer 2"/></symbol><symbol id="icon_facebook"><use xlink:href="#a" transform="translate(-280 -920)"/></symbol><symbol id="icon_like"><use fill="#d7569c" xlink:href="#a" transform="translate(-660 -529)"/></symbol><symbol id="icon_map" viewBox="0 0 52 47"><path d="M43 2a6.88 6.88 0 0 1 7 6.73c0 .79-.48 3.93-6.41 12.12C40.37 17.13 36 11.25 36 8.73A6.88 6.88 0 0 1 43 2m.25 11.09a4 4 0 1 0-4-4 4 4 0 0 0 4 4M12 16a10 10 0 0 1 10 10c0 1.5-.92 6.19-9.17 17.8C8.89 39.17 2 30.06 2 26a10 10 0 0 1 10-10m0 17a7 7 0 1 0-7-7 7 7 0 0 0 7 7M43 0a8.87 8.87 0 0 0-9 8.73C34 13.54 43.74 24 43.75 24c0-.09 8.25-10.45 8.25-15.27A8.87 8.87 0 0 0 43 0zm.25 11.09a2 2 0 1 1 2-2 2 2 0 0 1-2 2zM12 14A12 12 0 0 0 0 26c0 6.62 13 21 13 21 0-.12 11-14.37 11-21a12 12 0 0 0-12-12zm0 17a5 5 0 1 1 5-5 5 5 0 0 1-5 5zm27.89-4c-.63 0-3.81.15-7.89 3a19.91 19.91 0 0 0-7 9l15-12z" fill="#d7569c" data-name="Layer 2"/></symbol><symbol id="icon_phone"><use xlink:href="#a" transform="translate(-1482 -115)"/></symbol><symbol id="icon_thumbs_down"><use xlink:href="#a" transform="translate(-510 -921)"/></symbol><symbol id="icon_thumbs_up"><use xlink:href="#a" transform="translate(-426 -921)"/></symbol><symbol id="icon_vkontakte"><use xlink:href="#a" transform="translate(-356 -920)"/></symbol><symbol id="wave-shape"><use fill="#fff" fill-opacity="0" stroke="#fff" stroke-miterlimit="50" stroke-width="4" clip-path="url(&quot;#b&quot;)" xlink:href="#a" transform="translate(-127 -1349)"/></symbol></svg>
